<svg xmlns="http://www.w3.org/2000/svg" viewBox="0 0 36.08 36.08"><defs><style>.cls-1{fill:#4e4e4e;}</style></defs><title>logo-instagram</title><g id="Layer_2" data-name="Layer 2"><g id="Layer_2-2" data-name="Layer 2"><path class="cls-1" d="M18,3.25c4.82,0,5.39,0,7.29.11A9.93,9.93,0,0,1,28.68,4a5.39,5.39,0,0,1,2.07,1.35A5.63,5.63,0,0,1,32.1,7.4a9.93,9.93,0,0,1,.62,3.35c.09,1.9.11,2.47.11,7.29s0,5.39-.11,7.29a9.93,9.93,0,0,1-.62,3.35,6,6,0,0,1-3.42,3.42,9.93,9.93,0,0,1-3.35.62c-1.9.09-2.47.11-7.29.11s-5.39,0-7.29-.11A9.93,9.93,0,0,1,7.4,32.1a5.63,5.63,0,0,1-2.07-1.35A5.39,5.39,0,0,1,4,28.68a9.93,9.93,0,0,1-.62-3.35c-.09-1.9-.11-2.47-.11-7.29s0-5.39.11-7.29A9.93,9.93,0,0,1,4,7.4,5.39,5.39,0,0,1,5.33,5.33,5.39,5.39,0,0,1,7.4,4a9.93,9.93,0,0,1,3.35-.62c1.9-.09,2.47-.11,7.29-.11M18,0c-4.9,0-5.51,0-7.44.11A13.22,13.22,0,0,0,6.22,1,8.74,8.74,0,0,0,3,3,8.74,8.74,0,0,0,1,6.22,13.22,13.22,0,0,0,.11,10.6C0,12.53,0,13.14,0,18s0,5.51.11,7.44A13.22,13.22,0,0,0,1,29.86,8.74,8.74,0,0,0,3,33.05a8.88,8.88,0,0,0,3.19,2.08A13.22,13.22,0,0,0,10.6,36c1.93.09,2.54.11,7.44.11s5.51,0,7.44-.11a13.22,13.22,0,0,0,4.38-.84,9.24,9.24,0,0,0,5.27-5.27A13.22,13.22,0,0,0,36,25.48c.09-1.93.11-2.54.11-7.44s0-5.51-.11-7.44a13.22,13.22,0,0,0-.84-4.38A8.88,8.88,0,0,0,33.05,3,8.74,8.74,0,0,0,29.86,1,13.22,13.22,0,0,0,25.48.11C23.55,0,22.94,0,18,0"/><path class="cls-1" d="M18,8.78A9.26,9.26,0,1,0,27.3,18,9.25,9.25,0,0,0,18,8.78m0,15.27a6,6,0,1,1,6-6,6,6,0,0,1-6,6"/><path class="cls-1" d="M29.83,8.41a2.17,2.17,0,1,1-2.16-2.16,2.16,2.16,0,0,1,2.16,2.16"/></g></g></svg>