<?xml version="1.0" encoding="utf-8"?>
<!-- Generator: Adobe Illustrator 22.0.1, SVG Export Plug-In . SVG Version: 6.00 Build 0)  -->
<svg version="1.1" id="Layer_1" xmlns="http://www.w3.org/2000/svg" xmlns:xlink="http://www.w3.org/1999/xlink" x="0px" y="0px"
	 viewBox="0 0 36.1 36.1" style="enable-background:new 0 0 36.1 36.1;" xml:space="preserve">
<style type="text/css">
	.st0{fill:#4E4E4E;}
</style>
<title>logo-facebook</title>
<g>
	<path class="st0" d="M18,3.2c4.8,0,5.4,0,7.3,0.1c1.2,0,2.3,0.2,3.4,0.6c0.8,0.3,1.5,0.7,2.1,1.3c0.6,0.6,1.1,1.3,1.3,2.1
		c0.4,1.1,0.6,2.2,0.6,3.3c0.1,1.9,0.1,2.5,0.1,7.3s0,5.4-0.1,7.3c0,1.1-0.2,2.3-0.6,3.4c-0.6,1.6-1.9,2.8-3.4,3.4
		c-1.1,0.4-2.2,0.6-3.4,0.6c-1.9,0.1-2.5,0.1-7.3,0.1s-5.4,0-7.3-0.1c-1.1,0-2.3-0.2-3.3-0.6c-0.8-0.3-1.5-0.8-2.1-1.4
		c-0.6-0.6-1.1-1.3-1.3-2.1c-0.4-1.1-0.6-2.2-0.6-3.4c-0.1-1.9-0.1-2.5-0.1-7.3s0-5.4,0.1-7.3c0-1.1,0.2-2.3,0.6-3.4
		c0.3-0.8,0.7-1.5,1.3-2.1C5.9,4.7,6.6,4.3,7.4,4c1.1-0.4,2.2-0.6,3.3-0.6C12.6,3.3,13.2,3.3,18,3.2 M18,0c-4.9,0-5.5,0-7.4,0.1
		C9.1,0.2,7.6,0.5,6.2,1C5,1.4,3.9,2.1,3,3C2.1,3.9,1.4,5,1,6.2c-0.5,1.4-0.8,2.9-0.9,4.4C0,12.5,0,13.1,0,18s0,5.5,0.1,7.4
		c0,1.5,0.3,3,0.9,4.4c0.4,1.2,1.1,2.3,2,3.2c0.9,0.9,2,1.6,3.2,2.1c1.4,0.5,2.9,0.8,4.4,0.9c1.9,0.1,2.5,0.1,7.4,0.1s5.5,0,7.4-0.1
		c1.5,0,3-0.3,4.4-0.8c2.4-0.9,4.3-2.9,5.3-5.3c0.5-1.4,0.8-2.9,0.9-4.4c0.1-1.9,0.1-2.5,0.1-7.4s0-5.5-0.1-7.4c0-1.5-0.3-3-0.8-4.4
		C34.7,5,34,3.9,33,3c-0.9-0.9-2-1.6-3.2-2c-1.4-0.5-2.9-0.8-4.4-0.9C23.5,0,22.9,0,18,0"/>
	<g>
		<rect x="7.4" y="13.6" class="st0" width="4.3" height="15.8"/>
		<ellipse class="st0" cx="9.6" cy="9.2" rx="2.5" ry="2.5"/>
		<path class="st0" d="M29,29.4h-4.3v-8.1c0-4.8-5.8-4.5-5.8,0v8.1h-4.3V13.6h4.3v2.5c2-3.7,10.1-4,10.1,3.6V29.4z"/>
	</g>
</g>
</svg>
